<svg id="Component_8_1" data-name="Component 8 – 1" xmlns="http://www.w3.org/2000/svg" width="69.407" height="22.956" viewBox="0 0 69.407 22.956">
  <defs>
    <style>
      .cls-1 {
        fill: #fff;
      }

      .cls-2 {
        fill: #f5ed01;
      }

      .cls-3 {
        fill: #211e50;
      }
    </style>
  </defs>
  <path id="Path_1" data-name="Path 1" class="cls-1" d="M21.7,29.128h-4.2l5.451-16.156h5.2l5.451,16.156h-4.2L25.617,17.042h-.126Zm-.56-6.358h8.772v2.966H21.145Zm17.683,3.179.016-4.6h.536l3.408-4.339h4.37l-5.065,6.216H41.075Zm-3.479,3.179V12.972h3.858V29.128Zm7.526,0L39.7,24.095l2.54-2.737,5.088,7.77Zm10.821.229a6.531,6.531,0,0,1-3.282-.781,5.389,5.389,0,0,1-2.106-2.193,7,7,0,0,1-.734-3.274,6.972,6.972,0,0,1,.734-3.274,5.325,5.325,0,0,1,2.106-2.193,7.2,7.2,0,0,1,6.555,0,5.26,5.26,0,0,1,2.107,2.193,6.912,6.912,0,0,1,.741,3.274,6.942,6.942,0,0,1-.741,3.274,5.322,5.322,0,0,1-2.107,2.193A6.485,6.485,0,0,1,53.7,29.357Zm.024-2.911a1.711,1.711,0,0,0,1.175-.426,2.664,2.664,0,0,0,.734-1.183,5.379,5.379,0,0,0,.26-1.751,5.434,5.434,0,0,0-.26-1.767,2.664,2.664,0,0,0-.734-1.183,1.711,1.711,0,0,0-1.175-.426,1.8,1.8,0,0,0-1.215.426,2.686,2.686,0,0,0-.749,1.183,5.594,5.594,0,0,0-.252,1.767,5.538,5.538,0,0,0,.252,1.751A2.686,2.686,0,0,0,52.5,26.02,1.8,1.8,0,0,0,53.719,26.446Zm8.074,2.682V17.011h3.857V29.128ZM63.734,15.6a2,2,0,0,1-1.4-.536,1.727,1.727,0,0,1-.584-1.31,1.7,1.7,0,0,1,.584-1.294,2.063,2.063,0,0,1,2.793,0,1.694,1.694,0,0,1,.584,1.294,1.727,1.727,0,0,1-.584,1.31A1.965,1.965,0,0,1,63.734,15.6Zm8.23,6.619v6.911H68.106V17.011h3.668v2.225h.134a3.4,3.4,0,0,1,1.373-1.743,4.107,4.107,0,0,1,2.311-.639,4.155,4.155,0,0,1,2.217.576,3.841,3.841,0,0,1,1.468,1.594A5.039,5.039,0,0,1,79.8,21.4v7.723H75.939V22.162a2.219,2.219,0,0,0-.512-1.578A1.827,1.827,0,0,0,74,20.016a2.11,2.11,0,0,0-1.073.268,1.779,1.779,0,0,0-.71.749A2.692,2.692,0,0,0,71.964,22.217Z" transform="translate(-17.508 -6.4)"/>
  <rect id="Rectangle_1" data-name="Rectangle 1" class="cls-2" width="15.866" height="6.016" rx="3.008" transform="matrix(0.966, -0.259, 0.259, 0.966, 52.525, 4.106)"/>
  <path id="Path_2" data-name="Path 2" class="cls-3" d="M142.648,6.856l.543,1.986-.007,0-1.792-1.651-.469.126.738,2.754.468-.126-.542-1.978.007,0,1.793,1.643.465-.125-.738-2.754ZM145.9,6.4l-.1-.386-1.838.493.738,2.754.493-.132-.319-1.191,1.148-.308-.1-.386-1.148.308-.212-.79Zm2.42-1.062-2.114.566.1.386.808-.217.635,2.367.493-.132-.635-2.368.812-.218Z" transform="translate(-83.806 -2.866)"/>
</svg>
